v -1 -1 -1
v 1 -1 -1
v -1 1 -1
v 1 1 -1
v -1 -1 1
v 1 -1 1
v -1 1 1
v 1 1 1
# 8 vertices

vn -0.57735 -0.57735 -0.57735
vn 0.57735 -0.57735 -0.57735
vn -0.57735 0.57735 -0.57735
vn 0.57735 0.57735 -0.57735
vn -0.57735 -0.57735 0.57735
vn 0.57735 -0.57735 0.57735
vn -0.57735 0.57735 0.57735
vn 0.57735 0.57735 0.57735
# 8 normals

f 1//1 4//4 2//2
f 1//1 3//3 4//4
f 5//5 6//6 8//8
f 5//5 8//8 7//7
f 1//1 2//2 5//5
f 2//2 6//6 5//5
f 2//2 4//4 6//6
f 4//4 8//8 6//6
f 4//4 3//3 8//8
f 8//8 3//3 7//7
f 5//5 7//7 1//1
f 3//3 1//1 7//7
# 12 faces


